<svg width="19" height="21" viewBox="0 0 19 21" fill="none" xmlns="http://www.w3.org/2000/svg">
<g clip-path="url(#clip0_18_5)">
<path d="M1.47461 16.6406H16.9531C17.4154 16.6406 17.7767 16.5332 18.0371 16.3184C18.2975 16.1035 18.4277 15.8171 18.4277 15.459C18.4277 15.1335 18.3333 14.8177 18.1445 14.5117C17.9557 14.2057 17.7197 13.9062 17.4365 13.6133C17.1533 13.3203 16.8717 13.0273 16.5918 12.7344C16.3769 12.513 16.2093 12.2233 16.0889 11.8652C15.9684 11.5071 15.8789 11.1263 15.8203 10.7227C15.7617 10.319 15.7194 9.92839 15.6934 9.55078C15.6739 8.30078 15.5388 7.1875 15.2881 6.21094C15.0374 5.23437 14.6484 4.41406 14.1211 3.75C13.5938 3.08594 12.8971 2.59766 12.0312 2.28516C11.8489 1.64713 11.5137 1.10677 11.0254 0.664062C10.5371 0.221354 9.93166 0 9.20898 0C8.49284 0 7.89063 0.221354 7.40234 0.664062C6.91406 1.10677 6.57877 1.64713 6.39648 2.28516C5.5306 2.59766 4.83236 3.08594 4.30176 3.75C3.77116 4.41406 3.38216 5.23437 3.13477 6.21094C2.88737 7.1875 2.75391 8.30078 2.73438 9.55078C2.70833 9.92839 2.66601 10.319 2.60742 10.7227C2.54883 11.1263 2.45931 11.5071 2.33887 11.8652C2.21842 12.2233 2.05078 12.513 1.83594 12.7344C1.55599 13.0273 1.27442 13.3203 0.991211 13.6133C0.708008 13.9062 0.472005 14.2057 0.283203 14.5117C0.094401 14.8177 0 15.1335 0 15.459C0 15.8171 0.130208 16.1035 0.390625 16.3184C0.651042 16.5332 1.01237 16.6406 1.47461 16.6406ZM9.20898 20.5566C9.76239 20.5566 10.2572 20.4362 10.6934 20.1953C11.1296 19.9544 11.4795 19.6387 11.7432 19.248C12.0069 18.8574 12.1615 18.4342 12.207 17.9785H6.2207C6.25977 18.4342 6.41276 18.8574 6.67969 19.248C6.94662 19.6387 7.29818 19.9544 7.73438 20.1953C8.17057 20.4362 8.66211 20.5566 9.20898 20.5566Z" fill="#BC2228"/>
</g>
<defs>
<clipPath id="clip0_18_5">
<rect width="18.4277" height="20.5566" fill="white"/>
</clipPath>
</defs>
</svg>
