<svg width="25" height="25" viewBox="0 0 25 25" fill="none" xmlns="http://www.w3.org/2000/svg">
<path d="M12.4763 0C10.0519 0.00460629 7.68111 0.714139 5.65279 2.04217C3.62448 3.37021 2.02613 5.25943 1.05243 7.47971C0.0787406 9.7 -0.228272 12.1555 0.16879 14.5472C0.565853 16.9389 1.64985 19.1635 3.28876 20.95C4.45929 22.2188 5.87993 23.2314 7.46118 23.924C9.04242 24.6166 10.75 24.9742 12.4763 24.9742C14.2025 24.9742 15.9101 24.6166 17.4913 23.924C19.0726 23.2314 20.4932 22.2188 21.6638 20.95C23.3027 19.1635 24.3867 16.9389 24.7837 14.5472C25.1808 12.1555 24.8738 9.7 23.9001 7.47971C22.9264 5.25943 21.328 3.37021 19.2997 2.04217C17.2714 0.714139 14.9007 0.00460629 12.4763 0ZM12.4763 22.5C9.88684 22.4961 7.3999 21.4878 5.53876 19.6875C6.10381 18.3119 7.06505 17.1354 8.30032 16.3074C9.5356 15.4793 10.9891 15.0373 12.4763 15.0373C13.9634 15.0373 15.4169 15.4793 16.6522 16.3074C17.8875 17.1354 18.8487 18.3119 19.4138 19.6875C17.5526 21.4878 15.0657 22.4961 12.4763 22.5ZM9.97626 10C9.97626 9.50555 10.1229 9.0222 10.3976 8.61107C10.6723 8.19995 11.0627 7.87952 11.5195 7.6903C11.9764 7.50108 12.479 7.45157 12.964 7.54804C13.4489 7.6445 13.8944 7.8826 14.244 8.23223C14.5937 8.58186 14.8318 9.02732 14.9282 9.51227C15.0247 9.99723 14.9752 10.4999 14.786 10.9567C14.5967 11.4135 14.2763 11.804 13.8652 12.0787C13.4541 12.3534 12.9707 12.5 12.4763 12.5C11.8132 12.5 11.1773 12.2366 10.7085 11.7678C10.2396 11.2989 9.97626 10.663 9.97626 10ZM21.1138 17.5C19.9969 15.5897 18.278 14.1038 16.2263 13.275C16.8627 12.5533 17.2774 11.6633 17.4206 10.7118C17.5638 9.76027 17.4293 8.78764 17.0334 7.91062C16.6375 7.0336 15.997 6.28945 15.1886 5.76746C14.3803 5.24547 13.4385 4.96781 12.4763 4.96781C11.514 4.96781 10.5722 5.24547 9.76387 5.76746C8.95553 6.28945 8.31497 7.0336 7.91907 7.91062C7.52317 8.78764 7.38874 9.76027 7.53192 10.7118C7.6751 11.6633 8.0898 12.5533 8.72626 13.275C6.67451 14.1038 4.95559 15.5897 3.83876 17.5C2.94869 15.9839 2.47841 14.2581 2.47626 12.5C2.47626 9.84783 3.52983 7.3043 5.40519 5.42893C7.28055 3.55357 9.82409 2.5 12.4763 2.5C15.1284 2.5 17.672 3.55357 19.5473 5.42893C21.4227 7.3043 22.4763 9.84783 22.4763 12.5C22.4741 14.2581 22.0038 15.9839 21.1138 17.5Z" fill="#BC2228"/>
</svg>
