<svg width="40" height="40" viewBox="0 0 40 40" fill="none" xmlns="http://www.w3.org/2000/svg">
<g clip-path="url(#clip0_21_5267)">
<path opacity="0.2" d="M20 23.7496C14.7341 23.7578 9.5596 22.3735 5.00127 19.7368V32.4996C5.00127 32.6637 5.0336 32.8263 5.09641 32.9779C5.15923 33.1296 5.25131 33.2674 5.36738 33.3834C5.48345 33.4995 5.62125 33.5916 5.77291 33.6544C5.92457 33.7172 6.08711 33.7496 6.25127 33.7496H33.7513C33.9154 33.7496 34.078 33.7172 34.2296 33.6544C34.3813 33.5916 34.5191 33.4995 34.6352 33.3834C34.7512 33.2674 34.8433 33.1296 34.9061 32.9779C34.9689 32.8263 35.0013 32.6637 35.0013 32.4996V19.7354C30.4424 22.3729 25.267 23.7578 20 23.7496Z" fill="#BC2228"/>
<path d="M33.7513 11.25H6.25127C5.56091 11.25 5.00127 11.8096 5.00127 12.5V32.5C5.00127 33.1904 5.56091 33.75 6.25127 33.75H33.7513C34.4416 33.75 35.0013 33.1904 35.0013 32.5V12.5C35.0013 11.8096 34.4416 11.25 33.7513 11.25Z" stroke="#BC2228" stroke-width="2" stroke-linecap="round" stroke-linejoin="round"/>
<path d="M26.25 11.25V8.75C26.25 8.08696 25.9866 7.45107 25.5178 6.98223C25.0489 6.51339 24.413 6.25 23.75 6.25H16.25C15.587 6.25 14.9511 6.51339 14.4822 6.98223C14.0134 7.45107 13.75 8.08696 13.75 8.75V11.25" stroke="#BC2228" stroke-width="2" stroke-linecap="round" stroke-linejoin="round"/>
<path d="M35.0013 19.7363C30.4423 22.3739 25.2669 23.7588 20 23.7505C14.734 23.7588 9.55941 22.3744 5.00103 19.7377" stroke="#BC2228" stroke-width="2" stroke-linecap="round" stroke-linejoin="round"/>
<path d="M18.125 18.75H21.875" stroke="#BC2228" stroke-width="2" stroke-linecap="round" stroke-linejoin="round"/>
</g>
<defs>
<clipPath id="clip0_21_5267">
<rect width="40" height="40" fill="white"/>
</clipPath>
</defs>
</svg>
