<svg width="128" height="56" viewBox="0 0 128 56" fill="none" xmlns="http://www.w3.org/2000/svg">
<path d="M66.9472 37.1573V18.9768H78.0448V21.2104H69.4163V26.5347H76.2775V28.7683H69.4163V34.9237H78.2787V37.1573H66.9472Z" fill="#231651"/>
<path d="M85.124 37.417C84.0411 37.417 83.0621 37.1227 82.1872 36.534C81.3122 35.9453 80.6148 35.1531 80.095 34.1575C79.5839 33.1619 79.3283 32.0494 79.3283 30.8201C79.3283 29.6514 79.5622 28.5605 80.03 27.5476C80.5065 26.5347 81.1779 25.7209 82.0442 25.1062C82.9105 24.4829 83.9371 24.1712 85.124 24.1712C85.973 24.1712 86.7916 24.3574 87.58 24.7296C88.377 25.0933 89.0224 25.7036 89.5162 26.5607L89.0224 26.8983V17.6782H91.3615V37.1573H89.2823L88.8405 34.4562L89.4382 34.8717C89.0657 35.7115 88.481 36.3478 87.684 36.7807C86.8869 37.2049 86.0336 37.417 85.124 37.417ZM85.5398 35.3392C86.1289 35.3392 86.7093 35.1877 87.2811 34.8847C87.8615 34.5817 88.338 34.1012 88.7105 33.4433C89.0917 32.7767 89.2823 31.9023 89.2823 30.8201C89.2823 29.8158 89.0917 28.9761 88.7105 28.3008C88.338 27.6169 87.8615 27.1061 87.2811 26.7684C86.7093 26.4222 86.1289 26.249 85.5398 26.249C84.7428 26.249 84.0584 26.4481 83.4866 26.8464C82.9149 27.2446 82.4774 27.79 82.1742 28.4826C81.871 29.1665 81.7193 29.9457 81.7193 30.8201C81.7193 31.6425 81.871 32.3957 82.1742 33.0797C82.4774 33.7636 82.9149 34.3133 83.4866 34.7289C84.0584 35.1358 84.7428 35.3392 85.5398 35.3392Z" fill="#231651"/>
<path d="M97.5667 37.417C96.5704 37.417 95.7215 37.2179 95.0197 36.8196C94.318 36.4127 93.7809 35.7981 93.4084 34.9756C93.0445 34.1532 92.8626 33.1056 92.8626 31.833V24.431H95.2017V31.1837C95.2017 32.5342 95.4312 33.5645 95.8904 34.2744C96.3582 34.9843 97.1162 35.3392 98.1645 35.3392C98.8835 35.3392 99.5506 35.1661 100.166 34.8198C100.781 34.4735 101.205 33.9194 101.439 33.1576L101.101 34.4302V24.431H103.44V37.1573H101.361L100.893 34.664L101.517 35.0795C101.093 35.8673 100.573 36.456 99.9578 36.8456C99.3513 37.2265 98.5543 37.417 97.5667 37.417Z" fill="#231651"/>
<path d="M21.0635 25.9322H17.4325V18.3056H21.0487C21.0487 18.3056 24.8747 18.1342 24.8747 21.9082C24.8747 25.6822 21.3631 25.9328 21.0635 25.9328M22.7631 27.3671C22.7631 27.3671 27.4207 26.4534 27.4207 21.6168C27.4207 16.7802 22.928 16.0752 21.5428 16.0752H15.0284V37.107H17.4319V28.0573H19.4087C20.5245 28.0573 21.6326 28.2352 23.1751 30.738L26.8817 37.1005H29.7491L25.2269 29.689C25.2269 29.689 24.1336 27.7973 22.7631 27.3677" fill="#BC2228"/>
<path d="M33.672 18.3057V16.0747H31.262V18.2761" fill="#919191"/>
<path d="M31.2614 19.0942V37.1913H33.6726V19.1167" fill="#919191"/>
<path d="M62.5214 19.0952H60.1114V37.1645H62.5214V19.0952Z" fill="#919191"/>
<path d="M58.6345 19.061H48.595V21.5136H58.6345V19.061Z" fill="#919191"/>
<path d="M58.6345 34.7378H48.595V37.1904H58.6345V34.7378Z" fill="#919191"/>
<path d="M55.3646 27.0391H48.595V29.4922H55.3646V27.0391Z" fill="#919191"/>
<path d="M42.7253 19.0942H40.2916L33.5975 28.1327L40.2916 37.1653H42.7253L36.0389 28.1327L42.7253 19.0942Z" fill="#919191"/>
<path d="M44.7394 19.0942L38.1352 28.1327L44.7394 37.1653H47.15L40.5387 28.1327L47.15 19.0942H44.7394Z" fill="#BC2228"/>
<path d="M107.138 13.3745H107.137C104.342 13.3745 102.077 15.6399 102.077 18.4345V18.4351C102.077 21.2296 104.342 23.4951 107.137 23.4951H107.138C109.932 23.4951 112.198 21.2296 112.198 18.4351V18.4345C112.198 15.6399 109.932 13.3745 107.138 13.3745Z" fill="#BC2228"/>
<path d="M110.658 23.8241C107.145 23.5818 102.177 22.4914 101.451 14.8589C101.966 15.4782 102.68 16.1638 103.508 16.7453C104.545 19.0543 106.315 20.6582 108.293 21.6422C108.798 22.4175 109.547 23.1941 110.658 23.8241Z" fill="#59C1D9"/>
<path d="M108.293 21.642C106.314 20.658 104.544 19.0541 103.508 16.7451C104.623 17.5311 105.944 18.1298 107.266 18.1298C107.266 18.1298 107.149 19.8815 108.293 21.642Z" fill="#231651"/>
<path d="M108.293 21.6422C107.149 19.8817 107.266 18.13 107.266 18.13C105.944 18.13 104.624 17.5313 103.508 16.7453C102.873 15.3364 102.512 13.6645 102.541 11.709C103.752 13.1628 107.145 15.9493 109.447 15.9493C109.447 15.9493 110.052 20.7953 113.687 22.8549C111.966 22.8986 110.048 22.5133 108.293 21.6422Z" fill="#1790BF"/>
<path d="M16.302 45.784L15.0591 41.6689H15.9553L16.7501 44.9526L17.6294 41.7948H18.4157L19.3035 44.9526L20.0983 41.6689H20.9945L19.7431 45.784H18.8892L18.0268 42.7438L17.1559 45.784H16.302Z" fill="#919191"/>
<path d="M21.5915 45.784V39.4854H22.3609V42.3827L22.0903 42.3659C22.2848 42.1224 22.4934 41.932 22.716 41.7948C22.9415 41.6549 23.2289 41.5849 23.5784 41.5849C23.9363 41.5849 24.2351 41.6647 24.4746 41.8242C24.7142 41.9838 24.8932 42.2064 25.0115 42.4919C25.1327 42.7774 25.1933 43.1106 25.1933 43.4913V45.784H24.4324V43.5837C24.4324 43.1302 24.3478 42.7956 24.1787 42.5801C24.0124 42.3645 23.756 42.2567 23.4093 42.2567C23.1472 42.2567 22.9147 42.3267 22.7118 42.4667C22.5117 42.6067 22.3524 42.7942 22.2341 43.0294L22.3609 42.5675V45.784H21.5915Z" fill="#919191"/>
<path d="M28.1694 45.868C27.6818 45.868 27.2718 45.7686 26.9392 45.5698C26.6066 45.3711 26.3544 45.1079 26.1825 44.7804C26.0134 44.4501 25.9288 44.0875 25.9288 43.6928C25.9288 43.3093 26.0077 42.958 26.1656 42.6389C26.3262 42.3197 26.5573 42.065 26.8589 41.8746C27.1633 41.6815 27.5296 41.5849 27.958 41.5849C28.3019 41.5849 28.6077 41.6535 28.8754 41.7906C29.146 41.925 29.3573 42.1224 29.5095 42.3827C29.6645 42.6403 29.742 42.9538 29.742 43.3233C29.742 43.3821 29.7392 43.4465 29.7336 43.5165C29.7308 43.5837 29.7223 43.6536 29.7082 43.7264H26.7067C26.7433 44.1071 26.8349 44.4039 26.9815 44.6166C27.128 44.8294 27.3126 44.9791 27.5353 45.0659C27.7579 45.1527 28.0003 45.1961 28.2624 45.1961C28.4541 45.1961 28.6542 45.1765 28.8627 45.1373C29.0713 45.0981 29.2686 45.0365 29.4546 44.9526L29.556 45.5488C29.3954 45.6188 29.1995 45.6902 28.9684 45.763C28.7373 45.833 28.471 45.868 28.1694 45.868ZM26.7743 43.2057H28.9557C28.9557 43.0126 28.9191 42.8446 28.8458 42.7018C28.7725 42.5591 28.6612 42.4499 28.5118 42.3743C28.3625 42.2959 28.1722 42.2567 27.9411 42.2567C27.6029 42.2567 27.3422 42.3407 27.159 42.5087C26.9787 42.6739 26.8504 42.9062 26.7743 43.2057Z" fill="#919191"/>
<path d="M30.5091 45.784V41.6689H31.1347L31.2277 42.3491C31.4391 42.0888 31.6406 41.897 31.8323 41.7738C32.0267 41.6479 32.2339 41.5849 32.4537 41.5849C32.5242 41.5849 32.589 41.5933 32.6482 41.6101L32.5721 42.4415C32.5354 42.4331 32.496 42.4275 32.4537 42.4247C32.4143 42.4191 32.3692 42.4163 32.3184 42.4163C32.0986 42.4163 31.8957 42.4653 31.7097 42.5633C31.5265 42.6585 31.3968 42.7634 31.3207 42.8782V45.784H30.5091Z" fill="#919191"/>
<path d="M35.0639 45.868C34.5763 45.868 34.1662 45.7686 33.8337 45.5698C33.5011 45.3711 33.2489 45.1079 33.0769 44.7804C32.9078 44.4501 32.8233 44.0875 32.8233 43.6928C32.8233 43.3093 32.9022 42.958 33.06 42.6389C33.2207 42.3197 33.4518 42.065 33.7533 41.8746C34.0577 41.6815 34.4241 41.5849 34.8525 41.5849C35.1963 41.5849 35.5021 41.6535 35.7699 41.7906C36.0404 41.925 36.2518 42.1224 36.404 42.3827C36.559 42.6403 36.6365 42.9538 36.6365 43.3233C36.6365 43.3821 36.6337 43.4465 36.628 43.5165C36.6252 43.5837 36.6168 43.6536 36.6027 43.7264H33.6012C33.6378 44.1071 33.7294 44.4039 33.8759 44.6166C34.0225 44.8294 34.2071 44.9791 34.4297 45.0659C34.6524 45.1527 34.8948 45.1961 35.1569 45.1961C35.3485 45.1961 35.5486 45.1765 35.7572 45.1373C35.9657 45.0981 36.163 45.0365 36.349 44.9526L36.4505 45.5488C36.2898 45.6188 36.094 45.6902 35.8629 45.763C35.6318 45.833 35.3654 45.868 35.0639 45.868ZM33.6688 43.2057H35.8502C35.8502 43.0126 35.8135 42.8446 35.7403 42.7018C35.667 42.5591 35.5557 42.4499 35.4063 42.3743C35.2569 42.2959 35.0667 42.2567 34.8356 42.2567C34.4974 42.2567 34.2367 42.3407 34.0535 42.5087C33.8731 42.6739 33.7449 42.9062 33.6688 43.2057Z" fill="#919191"/>
<path d="M40.9429 45.868C40.5906 45.868 40.2721 45.7728 39.9874 45.5824C39.7028 45.3921 39.4759 45.1359 39.3068 44.814C39.1405 44.4921 39.0574 44.1323 39.0574 43.7348C39.0574 43.3569 39.1335 43.0042 39.2857 42.6767C39.4407 42.3491 39.6591 42.086 39.9409 41.8872C40.2228 41.6857 40.5567 41.5849 40.9429 41.5849C41.2191 41.5849 41.4854 41.6451 41.7419 41.7655C42.0011 41.883 42.2111 42.0804 42.3718 42.3575L42.2111 42.4667V39.4854H42.9721V45.784H42.2957L42.1519 44.9106L42.3464 45.0449C42.2252 45.3165 42.035 45.5222 41.7757 45.6622C41.5164 45.7994 41.2388 45.868 40.9429 45.868ZM41.0781 45.1961C41.2698 45.1961 41.4586 45.1471 41.6446 45.0491C41.8335 44.9512 41.9885 44.7958 42.1097 44.583C42.2337 44.3675 42.2957 44.0847 42.2957 43.7348C42.2957 43.4101 42.2337 43.1386 42.1097 42.9202C41.9885 42.699 41.8335 42.5339 41.6446 42.4247C41.4586 42.3127 41.2698 42.2567 41.0781 42.2567C40.8189 42.2567 40.5962 42.3211 40.4102 42.4499C40.2242 42.5787 40.0819 42.755 39.9832 42.979C39.8846 43.2001 39.8353 43.4521 39.8353 43.7348C39.8353 44.0008 39.8846 44.2443 39.9832 44.4655C40.0819 44.6866 40.2242 44.8644 40.4102 44.9987C40.5962 45.1303 40.8189 45.1961 41.0781 45.1961Z" fill="#919191"/>
<path d="M43.9925 45.784V41.6689H44.6181L44.7111 42.3491C44.9225 42.0888 45.124 41.897 45.3157 41.7738C45.5101 41.6479 45.7173 41.5849 45.9371 41.5849C46.0076 41.5849 46.0724 41.5933 46.1316 41.6101L46.0555 42.4415C46.0189 42.4331 45.9794 42.4275 45.9371 42.4247C45.8977 42.4191 45.8526 42.4163 45.8018 42.4163C45.582 42.4163 45.3791 42.4653 45.1931 42.5633C45.0099 42.6585 44.8803 42.7634 44.8042 42.8782V45.784H43.9925Z" fill="#919191"/>
<path d="M48.5473 45.868C48.0597 45.868 47.6496 45.7686 47.3171 45.5698C46.9845 45.3711 46.7323 45.1079 46.5604 44.7804C46.3913 44.4501 46.3067 44.0875 46.3067 43.6928C46.3067 43.3093 46.3856 42.958 46.5434 42.6389C46.7041 42.3197 46.9352 42.065 47.2367 41.8746C47.5411 41.6815 47.9075 41.5849 48.3359 41.5849C48.6797 41.5849 48.9855 41.6535 49.2533 41.7906C49.5238 41.925 49.7352 42.1224 49.8874 42.3827C50.0424 42.6403 50.1199 42.9538 50.1199 43.3233C50.1199 43.3821 50.1171 43.4465 50.1115 43.5165C50.1086 43.5837 50.1002 43.6536 50.0861 43.7264H47.0846C47.1212 44.1071 47.2128 44.4039 47.3593 44.6166C47.5059 44.8294 47.6905 44.9791 47.9132 45.0659C48.1358 45.1527 48.3782 45.1961 48.6403 45.1961C48.8319 45.1961 49.032 45.1765 49.2406 45.1373C49.4491 45.0981 49.6464 45.0365 49.8324 44.9526L49.9339 45.5488C49.7732 45.6188 49.5774 45.6902 49.3463 45.763C49.1152 45.833 48.8488 45.868 48.5473 45.868ZM47.1522 43.2057H49.3336C49.3336 43.0126 49.297 42.8446 49.2237 42.7018C49.1504 42.5591 49.0391 42.4499 48.8897 42.3743C48.7403 42.2959 48.5501 42.2567 48.319 42.2567C47.9808 42.2567 47.7201 42.3407 47.5369 42.5087C47.3565 42.6739 47.2283 42.9062 47.1522 43.2057Z" fill="#919191"/>
<path d="M51.8508 45.868C51.5943 45.868 51.3703 45.8162 51.1786 45.7126C50.987 45.609 50.8376 45.4676 50.7305 45.2885C50.6262 45.1093 50.5741 44.905 50.5741 44.6754C50.5741 44.4431 50.6248 44.2443 50.7263 44.0791C50.8306 43.9112 50.9687 43.7726 51.1406 43.6634C51.3153 43.5515 51.5098 43.4633 51.724 43.3989C51.9382 43.3317 52.1594 43.2841 52.3877 43.2561C52.6188 43.2253 52.84 43.2085 53.0514 43.2057C53.0514 42.8138 52.9739 42.5577 52.8189 42.4373C52.6639 42.3169 52.4398 42.2567 52.1467 42.2567C51.9917 42.2567 51.8254 42.2805 51.6479 42.3281C51.4731 42.3757 51.2759 42.4751 51.056 42.6263L50.9461 42.0132C51.1124 41.8872 51.3195 41.785 51.5676 41.7067C51.8156 41.6255 52.0763 41.5849 52.3496 41.5849C52.6991 41.5849 52.9809 41.6465 53.1951 41.7697C53.4093 41.89 53.5658 42.0944 53.6644 42.3827C53.763 42.6711 53.8124 43.063 53.8124 43.5585V44.3983C53.8124 44.5942 53.8208 44.7566 53.8377 44.8854C53.8575 45.0113 53.8997 45.1065 53.9646 45.1709C54.0322 45.2325 54.1393 45.2633 54.2858 45.2633H54.3619L54.2436 45.868H54.1844C53.9392 45.868 53.7489 45.8442 53.6137 45.7966C53.4812 45.749 53.3797 45.6804 53.3093 45.5908C53.2388 45.5012 53.1754 45.3921 53.1191 45.2633C52.964 45.4424 52.7808 45.588 52.5695 45.7C52.3581 45.812 52.1185 45.868 51.8508 45.868ZM51.9945 45.2633C52.1975 45.2633 52.3933 45.2129 52.5822 45.1121C52.7738 45.0113 52.9302 44.877 53.0514 44.709V43.7264C52.6484 43.7404 52.3215 43.7796 52.0706 43.844C51.8226 43.9084 51.6408 44.005 51.5253 44.1337C51.4097 44.2625 51.352 44.4291 51.352 44.6334C51.352 44.8546 51.4111 45.0155 51.5295 45.1163C51.6507 45.2143 51.8057 45.2633 51.9945 45.2633Z" fill="#919191"/>
<path d="M54.9493 45.784V41.6689H55.5411L55.6933 42.4583L55.4059 42.3239C55.6651 42.0468 55.9174 41.855 56.1626 41.7487C56.4078 41.6395 56.6657 41.5849 56.9362 41.5849C57.1391 41.5849 57.3336 41.6185 57.5196 41.6857C57.7084 41.7501 57.8775 41.8648 58.0269 42.03C58.1791 42.1924 58.3003 42.4191 58.3905 42.7102L58.1791 42.6179C58.3031 42.2987 58.4933 42.0468 58.7498 41.862C59.0063 41.6773 59.3515 41.5849 59.7856 41.5849C60.1322 41.5849 60.4239 41.6493 60.6606 41.778C60.8974 41.904 61.0749 42.0986 61.1933 42.3617C61.3145 42.6221 61.3751 42.9538 61.3751 43.3569V45.784H60.6141V43.3653C60.6141 42.979 60.538 42.6976 60.3859 42.5213C60.2337 42.3449 59.9857 42.2567 59.6418 42.2567C59.3994 42.2567 59.205 42.2945 59.0584 42.3701C58.9119 42.4429 58.8005 42.5381 58.7244 42.6557C58.6512 42.7732 58.6019 42.8978 58.5765 43.0294C58.5539 43.1609 58.5427 43.2841 58.5427 43.3989V45.784H57.7817V43.5165C57.7817 43.1805 57.7409 42.9216 57.6591 42.7396C57.5774 42.5577 57.4632 42.4317 57.3167 42.3617C57.1701 42.2917 57.001 42.2567 56.8094 42.2567C56.5304 42.2567 56.281 42.3183 56.0611 42.4415C55.8413 42.5619 55.6933 42.755 55.6172 43.021L55.7102 42.6095V45.784H54.9493Z" fill="#919191"/>
<path d="M63.5392 45.868C63.1728 45.868 62.8684 45.8246 62.626 45.7378C62.3865 45.651 62.2174 45.574 62.1187 45.5068L62.2117 44.7762C62.3019 44.8546 62.4612 44.9442 62.6894 45.0449C62.9177 45.1457 63.1897 45.1961 63.5054 45.1961C63.7731 45.1961 63.9774 45.1513 64.1183 45.0617C64.2621 44.9721 64.3339 44.8462 64.3339 44.6838C64.3339 44.541 64.2874 44.4263 64.1944 44.3395C64.1042 44.2499 63.9943 44.1799 63.8647 44.1295C63.7379 44.0763 63.6181 44.0344 63.5054 44.0036C63.3165 43.9532 63.1207 43.8902 62.9177 43.8146C62.7176 43.7362 62.5485 43.62 62.4104 43.4661C62.2723 43.3121 62.2033 43.0966 62.2033 42.8194C62.2033 42.6095 62.254 42.4107 62.3555 42.2232C62.4569 42.0328 62.6218 41.8788 62.8501 41.7613C63.0784 41.6437 63.3813 41.5849 63.759 41.5849C64.0352 41.5849 64.2593 41.6143 64.4312 41.6731C64.6059 41.7291 64.7567 41.7892 64.8835 41.8536L64.7905 42.5423C64.6693 42.4415 64.5284 42.3561 64.3678 42.2861C64.2071 42.2162 64.0098 42.1812 63.7759 42.1812C63.5392 42.1812 63.3461 42.226 63.1967 42.3155C63.0474 42.4023 62.9727 42.5423 62.9727 42.7354C62.9727 42.9286 63.0516 43.0658 63.2094 43.1469C63.3701 43.2281 63.6124 43.3177 63.9366 43.4157C64.038 43.4437 64.155 43.4843 64.2874 43.5375C64.4227 43.5907 64.5538 43.662 64.6806 43.7516C64.8074 43.8412 64.9117 43.9588 64.9934 44.1043C65.078 44.2471 65.1203 44.4263 65.1203 44.6418C65.1203 44.8238 65.0766 45.0099 64.9892 45.2003C64.9018 45.3879 64.744 45.546 64.5157 45.6748C64.2874 45.8036 63.9619 45.868 63.5392 45.868Z" fill="#919191"/>
<path d="M69.6663 45.868C69.1984 45.868 68.8053 45.7742 68.4868 45.5866C68.1711 45.3963 67.9316 45.1415 67.7681 44.8224C67.6075 44.5005 67.5272 44.1435 67.5272 43.7516C67.5272 43.3429 67.6047 42.9748 67.7597 42.6473C67.9175 42.3197 68.1585 42.0608 68.4826 41.8704C68.8067 41.6801 69.221 41.5849 69.7255 41.5849C69.9425 41.5849 70.1468 41.6073 70.3384 41.6521C70.5329 41.6941 70.7062 41.7529 70.8584 41.8284L70.7401 42.4919C70.5851 42.4191 70.4202 42.3617 70.2454 42.3197C70.0735 42.2777 69.8946 42.2567 69.7085 42.2567C69.252 42.2567 68.9039 42.3855 68.6644 42.6431C68.4248 42.9006 68.305 43.2589 68.305 43.718C68.305 44.1659 68.4192 44.5256 68.6474 44.7972C68.8757 45.0687 69.2238 45.2045 69.6916 45.2045C69.8833 45.2045 70.0665 45.1821 70.2412 45.1373C70.4188 45.0925 70.5879 45.0309 70.7485 44.9526L70.85 45.5572C70.7372 45.6356 70.5724 45.707 70.3554 45.7714C70.1383 45.8358 69.9087 45.868 69.6663 45.868Z" fill="#919191"/>
<path d="M73.3549 45.868C72.9209 45.868 72.5503 45.7728 72.2431 45.5824C71.9387 45.3893 71.7048 45.1317 71.5413 44.8098C71.3807 44.4851 71.3003 44.1239 71.3003 43.7264C71.3003 43.3289 71.3807 42.9692 71.5413 42.6473C71.7048 42.3225 71.9387 42.065 72.2431 41.8746C72.5503 41.6815 72.9209 41.5849 73.3549 41.5849C73.7861 41.5849 74.1553 41.6815 74.4625 41.8746C74.7697 42.065 75.0036 42.3225 75.1643 42.6473C75.3277 42.9692 75.4095 43.3289 75.4095 43.7264C75.4095 44.1239 75.3277 44.4851 75.1643 44.8098C75.0036 45.1317 74.7697 45.3893 74.4625 45.5824C74.1553 45.7728 73.7861 45.868 73.3549 45.868ZM73.3549 45.1961C73.7664 45.1961 74.082 45.0673 74.3019 44.8098C74.5217 44.5494 74.6316 44.1883 74.6316 43.7264C74.6316 43.2645 74.5217 42.9048 74.3019 42.6473C74.082 42.3869 73.7664 42.2567 73.3549 42.2567C72.9462 42.2567 72.6306 42.3869 72.4079 42.6473C72.1881 42.9048 72.0782 43.2645 72.0782 43.7264C72.0782 44.1883 72.1881 44.5494 72.4079 44.8098C72.6306 45.0673 72.9462 45.1961 73.3549 45.1961Z" fill="#919191"/>
<path d="M76.1941 45.784V41.6689H76.786L76.9382 42.4583L76.6507 42.3239C76.91 42.0468 77.1622 41.855 77.4074 41.7487C77.6526 41.6395 77.9105 41.5849 78.1811 41.5849C78.384 41.5849 78.5784 41.6185 78.7644 41.6857C78.9533 41.7501 79.1224 41.8648 79.2718 42.03C79.4239 42.1924 79.5451 42.4191 79.6353 42.7102L79.4239 42.6179C79.5479 42.2987 79.7382 42.0468 79.9947 41.862C80.2511 41.6773 80.5964 41.5849 81.0304 41.5849C81.377 41.5849 81.6687 41.6493 81.9055 41.778C82.1422 41.904 82.3198 42.0986 82.4381 42.3617C82.5593 42.6221 82.6199 42.9538 82.6199 43.3569V45.784H81.859V43.3653C81.859 42.979 81.7829 42.6976 81.6307 42.5213C81.4785 42.3449 81.2305 42.2567 80.8867 42.2567C80.6443 42.2567 80.4498 42.2945 80.3033 42.3701C80.1567 42.4429 80.0454 42.5381 79.9693 42.6557C79.896 42.7732 79.8467 42.8978 79.8213 43.0294C79.7988 43.1609 79.7875 43.2841 79.7875 43.3989V45.784H79.0266V43.5165C79.0266 43.1805 78.9857 42.9216 78.904 42.7396C78.8222 42.5577 78.7081 42.4317 78.5615 42.3617C78.415 42.2917 78.2459 42.2567 78.0542 42.2567C77.7752 42.2567 77.5258 42.3183 77.306 42.4415C77.0861 42.5619 76.9382 42.755 76.8621 43.021L76.9551 42.6095V45.784H76.1941Z" fill="#919191"/>
<path d="M85.5957 45.868C85.1081 45.868 84.6981 45.7686 84.3655 45.5698C84.0329 45.3711 83.7807 45.1079 83.6088 44.7804C83.4397 44.4501 83.3551 44.0875 83.3551 43.6928C83.3551 43.3093 83.434 42.958 83.5919 42.6389C83.7525 42.3197 83.9836 42.065 84.2852 41.8746C84.5895 41.6815 84.9559 41.5849 85.3843 41.5849C85.7281 41.5849 86.0339 41.6535 86.3017 41.7906C86.5722 41.925 86.7836 42.1224 86.9358 42.3827C87.0908 42.6403 87.1683 42.9538 87.1683 43.3233C87.1683 43.3821 87.1655 43.4465 87.1599 43.5165C87.157 43.5837 87.1486 43.6536 87.1345 43.7264H84.133C84.1696 44.1071 84.2612 44.4039 84.4078 44.6166C84.5543 44.8294 84.7389 44.9791 84.9616 45.0659C85.1842 45.1527 85.4266 45.1961 85.6887 45.1961C85.8803 45.1961 86.0804 45.1765 86.289 45.1373C86.4976 45.0981 86.6948 45.0365 86.8809 44.9526L86.9823 45.5488C86.8217 45.6188 86.6258 45.6902 86.3947 45.763C86.1636 45.833 85.8973 45.868 85.5957 45.868ZM84.2006 43.2057H86.382C86.382 43.0126 86.3454 42.8446 86.2721 42.7018C86.1988 42.5591 86.0875 42.4499 85.9381 42.3743C85.7887 42.2959 85.5985 42.2567 85.3674 42.2567C85.0292 42.2567 84.7685 42.3407 84.5853 42.5087C84.4049 42.6739 84.2767 42.9062 84.2006 43.2057Z" fill="#919191"/>
<path d="M91.2633 45.868C91.0012 45.868 90.7912 45.8204 90.6334 45.7252C90.4756 45.63 90.36 45.5082 90.2868 45.3599C90.2163 45.2087 90.1811 45.0505 90.1811 44.8854V42.2567H89.4709L89.5385 41.6689H90.1811V40.6527L90.942 40.5771V41.6689H92.0327V42.2567H90.942V44.4235C90.942 44.6866 90.9575 44.877 90.9885 44.9945C91.0195 45.1121 91.0956 45.1863 91.2168 45.2171C91.3408 45.2479 91.5395 45.2633 91.8129 45.2633H92.0073L91.9482 45.868H91.2633Z" fill="#919191"/>
<path d="M92.683 45.784V41.6689H93.3087L93.4017 42.3491C93.6131 42.0888 93.8146 41.897 94.0062 41.7738C94.2007 41.6479 94.4078 41.5849 94.6277 41.5849C94.6981 41.5849 94.763 41.5933 94.8221 41.6101L94.746 42.4415C94.7094 42.4331 94.6699 42.4275 94.6277 42.4247C94.5882 42.4191 94.5431 42.4163 94.4924 42.4163C94.2726 42.4163 94.0696 42.4653 93.8836 42.5633C93.7004 42.6585 93.5708 42.7634 93.4947 42.8782V45.784H92.683Z" fill="#919191"/>
<path d="M96.8463 45.868C96.5222 45.868 96.246 45.8036 96.0177 45.6748C95.7894 45.5432 95.6147 45.3445 95.4935 45.0785C95.3752 44.8126 95.316 44.4739 95.316 44.0623V41.6689H96.0769V43.8524C96.0769 44.2891 96.1516 44.6222 96.301 44.8518C96.4532 45.0813 96.6998 45.1961 97.0408 45.1961C97.2747 45.1961 97.4917 45.1401 97.6918 45.0281C97.8919 44.9162 98.03 44.737 98.1061 44.4907L97.9962 44.9022V41.6689H98.7571V45.784H98.0807L97.9286 44.9777L98.1315 45.1121C97.9934 45.3669 97.8243 45.5572 97.6242 45.6832C97.4269 45.8064 97.1676 45.868 96.8463 45.868Z" fill="#919191"/>
<path d="M101.779 45.868C101.292 45.868 100.881 45.7686 100.549 45.5698C100.216 45.3711 99.9641 45.1079 99.7922 44.7804C99.6231 44.4501 99.5385 44.0875 99.5385 43.6928C99.5385 43.3093 99.6174 42.958 99.7752 42.6389C99.9359 42.3197 100.167 42.065 100.469 41.8746C100.773 41.6815 101.139 41.5849 101.568 41.5849C101.912 41.5849 102.217 41.6535 102.485 41.7906C102.756 41.925 102.967 42.1224 103.119 42.3827C103.274 42.6403 103.352 42.9538 103.352 43.3233C103.352 43.3821 103.349 43.4465 103.343 43.5165C103.34 43.5837 103.332 43.6536 103.318 43.7264H100.316C100.353 44.1071 100.445 44.4039 100.591 44.6166C100.738 44.8294 100.922 44.9791 101.145 45.0659C101.368 45.1527 101.61 45.1961 101.872 45.1961C102.064 45.1961 102.264 45.1765 102.472 45.1373C102.681 45.0981 102.878 45.0365 103.064 44.9526L103.166 45.5488C103.005 45.6188 102.809 45.6902 102.578 45.763C102.347 45.833 102.081 45.868 101.779 45.868ZM100.384 43.2057H102.565C102.565 43.0126 102.529 42.8446 102.455 42.7018C102.382 42.5591 102.271 42.4499 102.122 42.3743C101.972 42.2959 101.782 42.2567 101.551 42.2567C101.213 42.2567 100.952 42.3407 100.769 42.5087C100.588 42.6739 100.46 42.9062 100.384 43.2057Z" fill="#919191"/>
</svg>
