<svg width="24" height="24" viewBox="0 0 24 24" fill="none" xmlns="http://www.w3.org/2000/svg">
<g clip-path="url(#clip0_6880_3996)">
<path d="M5.31891 14.5036L4.4835 17.6223L1.43011 17.6869C0.517594 15.9944 0 14.0579 0 12.0001C0 10.0102 0.483938 8.13374 1.34175 6.48145H1.34241L4.06078 6.97982L5.25159 9.68188C5.00236 10.4085 4.86652 11.1885 4.86652 12.0001C4.86661 12.881 5.02617 13.725 5.31891 14.5036Z" fill="#FBBB00"/>
<path d="M23.7903 9.75781C23.9281 10.4837 24 11.2334 24 11.9996C24 12.8587 23.9096 13.6967 23.7376 14.5051C23.1534 17.2558 21.627 19.6578 19.5125 21.3576L19.5119 21.3569L16.0879 21.1822L15.6033 18.1572C17.0064 17.3343 18.1029 16.0466 18.6805 14.5051H12.2638V9.75781H18.7741H23.7903Z" fill="#518EF8"/>
<path d="M19.5119 21.3577L19.5125 21.3584C17.4561 23.0113 14.8437 24.0004 12 24.0004C7.43014 24.0004 3.45697 21.4461 1.43014 17.6872L5.31893 14.5039C6.33233 17.2085 8.94134 19.1338 12 19.1338C13.3147 19.1338 14.5464 18.7784 15.6033 18.158L19.5119 21.3577Z" fill="#28B446"/>
<path d="M19.6596 2.76262L15.7721 5.94525C14.6783 5.26153 13.3853 4.86656 12 4.86656C8.87209 4.86656 6.21427 6.88017 5.25165 9.68175L1.34241 6.48131H1.34176C3.33891 2.63077 7.3622 0 12 0C14.9116 0 17.5813 1.03716 19.6596 2.76262Z" fill="#F14336"/>
</g>
<defs>
<clipPath id="clip0_6880_3996">
<rect width="24" height="24" fill="white"/>
</clipPath>
</defs>
</svg>
