<svg width="100" height="56" viewBox="0 0 100 56" fill="none" xmlns="http://www.w3.org/2000/svg">
<path d="M52.4472 36.5318V18.3513H63.5448V20.5849H54.9163V25.9092H61.7775V28.1428H54.9163V34.2982H63.7787V36.5318H52.4472Z" fill="#F8F7FA"/>
<path d="M70.624 36.7915C69.5411 36.7915 68.5621 36.4972 67.6872 35.9085C66.8122 35.3198 66.1148 34.5276 65.595 33.532C65.0839 32.5364 64.8283 31.424 64.8283 30.1946C64.8283 29.0259 65.0622 27.935 65.53 26.9221C66.0065 25.9092 66.6779 25.0954 67.5442 24.4807C68.4105 23.8574 69.4371 23.5458 70.624 23.5458C71.473 23.5458 72.2916 23.7319 73.08 24.1042C73.877 24.4678 74.5224 25.0781 75.0162 25.9352L74.5224 26.2728V17.0527H76.8615V36.5318H74.7823L74.3405 33.8307L74.9382 34.2463C74.5657 35.086 73.981 35.7223 73.184 36.1552C72.3869 36.5794 71.5336 36.7915 70.624 36.7915ZM71.0398 34.7137C71.6289 34.7137 72.2093 34.5622 72.7811 34.2592C73.3615 33.9562 73.838 33.4757 74.2105 32.8178C74.5917 32.1512 74.7823 31.2768 74.7823 30.1946C74.7823 29.1904 74.5917 28.3506 74.2105 27.6753C73.838 26.9914 73.3615 26.4806 72.7811 26.143C72.2093 25.7967 71.6289 25.6235 71.0398 25.6235C70.2428 25.6235 69.5584 25.8226 68.9866 26.2209C68.4149 26.6191 67.9774 27.1645 67.6742 27.8571C67.371 28.5411 67.2193 29.3202 67.2193 30.1946C67.2193 31.0171 67.371 31.7702 67.6742 32.4542C67.9774 33.1381 68.4149 33.6879 68.9866 34.1034C69.5584 34.5103 70.2428 34.7137 71.0398 34.7137Z" fill="#F8F7FA"/>
<path d="M83.0667 36.7915C82.0704 36.7915 81.2215 36.5924 80.5197 36.1942C79.818 35.7873 79.2809 35.1726 78.9084 34.3501C78.5445 33.5277 78.3626 32.4801 78.3626 31.2075V23.8055H80.7017V30.5582C80.7017 31.9088 80.9312 32.939 81.3904 33.6489C81.8582 34.3588 82.6162 34.7137 83.6645 34.7137C84.3835 34.7137 85.0506 34.5406 85.6657 34.1943C86.2808 33.848 86.7053 33.2939 86.9392 32.5321L86.6013 33.8047V23.8055H88.9404V36.5318H86.8612L86.3934 34.0385L87.0171 34.454C86.5926 35.2418 86.0728 35.8305 85.4578 36.2201C84.8513 36.6011 84.0543 36.7915 83.0667 36.7915Z" fill="#F8F7FA"/>
<path d="M6.56348 25.3072H2.93249V17.6806H6.54871C6.54871 17.6806 10.3747 17.5092 10.3747 21.2832C10.3747 25.0572 6.86311 25.3078 6.56348 25.3078M8.26314 26.7421C8.26314 26.7421 12.9207 25.8284 12.9207 20.9918C12.9207 16.1552 8.42803 15.4502 7.04277 15.4502H0.528379V36.482H2.9319V27.4323H4.90873C6.02451 27.4323 7.1326 27.6102 8.67506 30.113L12.3817 36.4755H15.2491L10.7269 29.064C10.7269 29.064 9.63363 27.1723 8.26314 26.7427" fill="#F8F7FA"/>
<path d="M19.172 17.6812V15.4502H16.762V17.6516" fill="#F8F7FA"/>
<path d="M16.7614 18.4688V36.5658H19.1726V18.4912" fill="#F8F7FA"/>
<path d="M48.0214 18.4707H45.6114V36.54H48.0214V18.4707Z" fill="#F8F7FA"/>
<path d="M44.1345 18.4355H34.095V20.8881H44.1345V18.4355Z" fill="#F8F7FA"/>
<path d="M44.1345 34.1133H34.095V36.5659H44.1345V34.1133Z" fill="#F8F7FA"/>
<path d="M40.8646 26.4141H34.095V28.8672H40.8646V26.4141Z" fill="#F8F7FA"/>
<path d="M28.2253 18.4688H25.7916L19.0976 27.5072L25.7916 36.5398H28.2253L21.5389 27.5072L28.2253 18.4688Z" fill="#F8F7FA"/>
<path d="M30.2394 18.4688L23.6352 27.5072L30.2394 36.5398H32.65L26.0387 27.5072L32.65 18.4688H30.2394Z" fill="#F8F7FA"/>
<path d="M92.6365 12.9492H92.6375C95.3215 12.9492 97.4976 15.1247 97.4979 17.8086V17.8096C97.4979 20.4937 95.3216 22.6699 92.6375 22.6699H92.6365C89.9526 22.6697 87.7772 20.4935 87.7772 17.8096V17.8086C87.7774 15.1248 89.9528 12.9494 92.6365 12.9492Z" stroke="#F8F7FA" stroke-width="0.4"/>
<path d="M96.158 23.1996C92.6446 22.9573 87.6774 21.8669 86.9505 14.2344C87.4665 14.8537 88.1804 15.5393 89.0077 16.1208C90.0449 18.4298 91.8149 20.0337 93.7929 21.0177C94.2982 21.793 95.047 22.5696 96.158 23.1996Z" fill="#F8F7FA"/>
<path d="M93.7929 21.0172C92.6494 19.2567 92.7658 17.505 92.7658 17.505C91.4438 17.505 90.1235 16.9063 89.0077 16.1203C88.373 14.7114 88.0119 13.0395 88.0409 11.084C89.2524 12.5378 92.6446 15.3243 94.9465 15.3243C94.9465 15.3243 95.5523 20.1703 99.1868 22.2299C97.4664 22.2736 95.5475 21.8883 93.7929 21.0172Z" fill="#F8F7FA"/>
<path d="M1.80196 45.159L0.559074 41.0439H1.4553L2.25007 44.3276L3.12939 41.1698H3.91571L4.80348 44.3276L5.59825 41.0439H6.49448L5.24314 45.159H4.38919L3.52678 42.1188L2.65591 45.159H1.80196Z" fill="#F8F7FA"/>
<path d="M7.09149 45.159V38.8604H7.86089V41.7577L7.59033 41.7409C7.7848 41.4974 7.99335 41.307 8.216 41.1698C8.44147 41.0299 8.72894 40.9599 9.07841 40.9599C9.43634 40.9599 9.73508 41.0397 9.97464 41.1992C10.2142 41.3588 10.3932 41.5814 10.5115 41.8669C10.6327 42.1524 10.6933 42.4856 10.6933 42.8663V45.159H9.93236V42.9587C9.93236 42.5052 9.84781 42.1706 9.67871 41.9551C9.51243 41.7395 9.25597 41.6317 8.90931 41.6317C8.64721 41.6317 8.41469 41.7017 8.21177 41.8417C8.01167 41.9817 7.85244 42.1692 7.73407 42.4044L7.86089 41.9425V45.159H7.09149Z" fill="#F8F7FA"/>
<path d="M13.6694 45.243C13.1818 45.243 12.7718 45.1436 12.4392 44.9448C12.1066 44.7461 11.8544 44.4829 11.6825 44.1554C11.5134 43.8251 11.4288 43.4625 11.4288 43.0678C11.4288 42.6843 11.5077 42.333 11.6656 42.0139C11.8262 41.6947 12.0573 41.44 12.3589 41.2496C12.6633 41.0565 13.0296 40.9599 13.458 40.9599C13.8019 40.9599 14.1077 41.0285 14.3754 41.1656C14.646 41.3 14.8573 41.4974 15.0095 41.7577C15.1645 42.0153 15.242 42.3288 15.242 42.6983C15.242 42.7571 15.2392 42.8215 15.2336 42.8915C15.2308 42.9587 15.2223 43.0286 15.2082 43.1014H12.2067C12.2433 43.4821 12.3349 43.7789 12.4815 43.9916C12.628 44.2044 12.8126 44.3541 13.0353 44.4409C13.2579 44.5277 13.5003 44.5711 13.7624 44.5711C13.9541 44.5711 14.1542 44.5515 14.3627 44.5123C14.5713 44.4731 14.7686 44.4115 14.9546 44.3276L15.056 44.9238C14.8954 44.9938 14.6995 45.0652 14.4684 45.138C14.2373 45.208 13.971 45.243 13.6694 45.243ZM12.2743 42.5807H14.4557C14.4557 42.3876 14.4191 42.2196 14.3458 42.0768C14.2725 41.9341 14.1612 41.8249 14.0118 41.7493C13.8625 41.6709 13.6722 41.6317 13.4411 41.6317C13.1029 41.6317 12.8422 41.7157 12.659 41.8837C12.4787 42.0489 12.3504 42.2812 12.2743 42.5807Z" fill="#F8F7FA"/>
<path d="M16.0091 45.159V41.0439H16.6347L16.7277 41.7241C16.9391 41.4638 17.1406 41.272 17.3323 41.1488C17.5267 41.0229 17.7339 40.9599 17.9537 40.9599C18.0242 40.9599 18.089 40.9683 18.1482 40.9851L18.0721 41.8165C18.0354 41.8081 17.996 41.8025 17.9537 41.7997C17.9143 41.7941 17.8692 41.7913 17.8184 41.7913C17.5986 41.7913 17.3957 41.8403 17.2097 41.9383C17.0265 42.0335 16.8968 42.1384 16.8207 42.2532V45.159H16.0091Z" fill="#F8F7FA"/>
<path d="M20.5639 45.243C20.0763 45.243 19.6662 45.1436 19.3337 44.9448C19.0011 44.7461 18.7489 44.4829 18.5769 44.1554C18.4078 43.8251 18.3233 43.4625 18.3233 43.0678C18.3233 42.6843 18.4022 42.333 18.56 42.0139C18.7207 41.6947 18.9518 41.44 19.2533 41.2496C19.5577 41.0565 19.9241 40.9599 20.3525 40.9599C20.6963 40.9599 21.0021 41.0285 21.2699 41.1656C21.5404 41.3 21.7518 41.4974 21.904 41.7577C22.059 42.0153 22.1365 42.3288 22.1365 42.6983C22.1365 42.7571 22.1337 42.8215 22.128 42.8915C22.1252 42.9587 22.1168 43.0286 22.1027 43.1014H19.1012C19.1378 43.4821 19.2294 43.7789 19.3759 43.9916C19.5225 44.2044 19.7071 44.3541 19.9297 44.4409C20.1524 44.5277 20.3948 44.5711 20.6569 44.5711C20.8485 44.5711 21.0486 44.5515 21.2572 44.5123C21.4657 44.4731 21.663 44.4115 21.849 44.3276L21.9505 44.9238C21.7898 44.9938 21.594 45.0652 21.3629 45.138C21.1318 45.208 20.8654 45.243 20.5639 45.243ZM19.1688 42.5807H21.3502C21.3502 42.3876 21.3135 42.2196 21.2403 42.0768C21.167 41.9341 21.0557 41.8249 20.9063 41.7493C20.7569 41.6709 20.5667 41.6317 20.3356 41.6317C19.9974 41.6317 19.7367 41.7157 19.5535 41.8837C19.3731 42.0489 19.2449 42.2812 19.1688 42.5807Z" fill="#F8F7FA"/>
<path d="M26.4429 45.243C26.0906 45.243 25.7721 45.1478 25.4874 44.9574C25.2028 44.7671 24.9759 44.5109 24.8068 44.189C24.6405 43.8671 24.5574 43.5073 24.5574 43.1098C24.5574 42.7319 24.6335 42.3792 24.7857 42.0517C24.9407 41.7241 25.1591 41.461 25.4409 41.2622C25.7228 41.0607 26.0567 40.9599 26.4429 40.9599C26.7191 40.9599 26.9854 41.0201 27.2419 41.1405C27.5011 41.258 27.7111 41.4554 27.8718 41.7325L27.7111 41.8417V38.8604H28.4721V45.159H27.7957L27.6519 44.2856L27.8464 44.4199C27.7252 44.6915 27.535 44.8972 27.2757 45.0372C27.0164 45.1744 26.7388 45.243 26.4429 45.243ZM26.5781 44.5711C26.7698 44.5711 26.9586 44.5221 27.1446 44.4241C27.3335 44.3262 27.4885 44.1708 27.6097 43.958C27.7337 43.7425 27.7957 43.4597 27.7957 43.1098C27.7957 42.7851 27.7337 42.5136 27.6097 42.2952C27.4885 42.074 27.3335 41.9089 27.1446 41.7997C26.9586 41.6877 26.7698 41.6317 26.5781 41.6317C26.3189 41.6317 26.0962 41.6961 25.9102 41.8249C25.7242 41.9537 25.5819 42.13 25.4832 42.354C25.3846 42.5751 25.3353 42.8271 25.3353 43.1098C25.3353 43.3758 25.3846 43.6193 25.4832 43.8405C25.5819 44.0616 25.7242 44.2394 25.9102 44.3737C26.0962 44.5053 26.3189 44.5711 26.5781 44.5711Z" fill="#F8F7FA"/>
<path d="M29.4925 45.159V41.0439H30.1181L30.2111 41.7241C30.4225 41.4638 30.624 41.272 30.8157 41.1488C31.0101 41.0229 31.2173 40.9599 31.4371 40.9599C31.5076 40.9599 31.5724 40.9683 31.6316 40.9851L31.5555 41.8165C31.5189 41.8081 31.4794 41.8025 31.4371 41.7997C31.3977 41.7941 31.3526 41.7913 31.3018 41.7913C31.082 41.7913 30.8791 41.8403 30.6931 41.9383C30.5099 42.0335 30.3803 42.1384 30.3042 42.2532V45.159H29.4925Z" fill="#F8F7FA"/>
<path d="M34.0473 45.243C33.5597 45.243 33.1496 45.1436 32.8171 44.9448C32.4845 44.7461 32.2323 44.4829 32.0604 44.1554C31.8913 43.8251 31.8067 43.4625 31.8067 43.0678C31.8067 42.6843 31.8856 42.333 32.0434 42.0139C32.2041 41.6947 32.4352 41.44 32.7367 41.2496C33.0411 41.0565 33.4075 40.9599 33.8359 40.9599C34.1797 40.9599 34.4855 41.0285 34.7533 41.1656C35.0238 41.3 35.2352 41.4974 35.3874 41.7577C35.5424 42.0153 35.6199 42.3288 35.6199 42.6983C35.6199 42.7571 35.6171 42.8215 35.6115 42.8915C35.6086 42.9587 35.6002 43.0286 35.5861 43.1014H32.5846C32.6212 43.4821 32.7128 43.7789 32.8593 43.9916C33.0059 44.2044 33.1905 44.3541 33.4132 44.4409C33.6358 44.5277 33.8782 44.5711 34.1403 44.5711C34.3319 44.5711 34.532 44.5515 34.7406 44.5123C34.9491 44.4731 35.1464 44.4115 35.3324 44.3276L35.4339 44.9238C35.2732 44.9938 35.0774 45.0652 34.8463 45.138C34.6152 45.208 34.3488 45.243 34.0473 45.243ZM32.6522 42.5807H34.8336C34.8336 42.3876 34.797 42.2196 34.7237 42.0768C34.6504 41.9341 34.5391 41.8249 34.3897 41.7493C34.2403 41.6709 34.0501 41.6317 33.819 41.6317C33.4808 41.6317 33.2201 41.7157 33.0369 41.8837C32.8565 42.0489 32.7283 42.2812 32.6522 42.5807Z" fill="#F8F7FA"/>
<path d="M37.3508 45.243C37.0943 45.243 36.8703 45.1912 36.6786 45.0876C36.487 44.984 36.3376 44.8426 36.2305 44.6635C36.1262 44.4843 36.0741 44.28 36.0741 44.0504C36.0741 43.8181 36.1248 43.6193 36.2263 43.4541C36.3306 43.2862 36.4687 43.1476 36.6406 43.0384C36.8153 42.9265 37.0098 42.8383 37.224 42.7739C37.4382 42.7067 37.6594 42.6591 37.8877 42.6311C38.1188 42.6003 38.34 42.5835 38.5514 42.5807C38.5514 42.1888 38.4739 41.9327 38.3189 41.8123C38.1639 41.6919 37.9398 41.6317 37.6467 41.6317C37.4917 41.6317 37.3254 41.6555 37.1479 41.7031C36.9731 41.7507 36.7759 41.8501 36.556 42.0013L36.4461 41.3882C36.6124 41.2622 36.8195 41.16 37.0676 41.0817C37.3156 41.0005 37.5763 40.9599 37.8496 40.9599C38.1991 40.9599 38.4809 41.0215 38.6951 41.1447C38.9093 41.265 39.0658 41.4694 39.1644 41.7577C39.263 42.0461 39.3124 42.438 39.3124 42.9335V43.7733C39.3124 43.9692 39.3208 44.1316 39.3377 44.2604C39.3575 44.3863 39.3997 44.4815 39.4646 44.5459C39.5322 44.6075 39.6393 44.6383 39.7858 44.6383H39.8619L39.7436 45.243H39.6844C39.4392 45.243 39.2489 45.2192 39.1137 45.1716C38.9812 45.124 38.8797 45.0554 38.8093 44.9658C38.7388 44.8762 38.6754 44.7671 38.6191 44.6383C38.464 44.8174 38.2808 44.963 38.0695 45.075C37.8581 45.187 37.6185 45.243 37.3508 45.243ZM37.4945 44.6383C37.6975 44.6383 37.8933 44.5879 38.0822 44.4871C38.2738 44.3863 38.4302 44.252 38.5514 44.084V43.1014C38.1484 43.1154 37.8215 43.1546 37.5706 43.219C37.3226 43.2834 37.1408 43.38 37.0253 43.5087C36.9097 43.6375 36.852 43.8041 36.852 44.0084C36.852 44.2296 36.9111 44.3905 37.0295 44.4913C37.1507 44.5893 37.3057 44.6383 37.4945 44.6383Z" fill="#F8F7FA"/>
<path d="M40.4493 45.159V41.0439H41.0411L41.1933 41.8333L40.9059 41.6989C41.1651 41.4218 41.4174 41.23 41.6626 41.1237C41.9078 41.0145 42.1657 40.9599 42.4362 40.9599C42.6391 40.9599 42.8336 40.9935 43.0196 41.0607C43.2084 41.1251 43.3775 41.2398 43.5269 41.405C43.6791 41.5674 43.8003 41.7941 43.8905 42.0852L43.6791 41.9929C43.8031 41.6737 43.9933 41.4218 44.2498 41.237C44.5063 41.0523 44.8515 40.9599 45.2856 40.9599C45.6322 40.9599 45.9239 41.0243 46.1606 41.153C46.3974 41.279 46.5749 41.4736 46.6933 41.7367C46.8145 41.9971 46.8751 42.3288 46.8751 42.7319V45.159H46.1141V42.7403C46.1141 42.354 46.038 42.0726 45.8859 41.8963C45.7337 41.7199 45.4857 41.6317 45.1418 41.6317C44.8994 41.6317 44.705 41.6695 44.5584 41.7451C44.4119 41.8179 44.3005 41.9131 44.2244 42.0307C44.1512 42.1482 44.1019 42.2728 44.0765 42.4044C44.0539 42.5359 44.0427 42.6591 44.0427 42.7739V45.159H43.2817V42.8915C43.2817 42.5555 43.2409 42.2966 43.1591 42.1146C43.0774 41.9327 42.9632 41.8067 42.8167 41.7367C42.6701 41.6667 42.501 41.6317 42.3094 41.6317C42.0304 41.6317 41.781 41.6933 41.5611 41.8165C41.3413 41.9369 41.1933 42.13 41.1172 42.396L41.2102 41.9845V45.159H40.4493Z" fill="#F8F7FA"/>
<path d="M49.0392 45.243C48.6728 45.243 48.3684 45.1996 48.126 45.1128C47.8865 45.026 47.7174 44.949 47.6187 44.8818L47.7117 44.1512C47.8019 44.2296 47.9612 44.3192 48.1894 44.4199C48.4177 44.5207 48.6897 44.5711 49.0054 44.5711C49.2731 44.5711 49.4774 44.5263 49.6183 44.4367C49.7621 44.3471 49.8339 44.2212 49.8339 44.0588C49.8339 43.916 49.7874 43.8013 49.6944 43.7145C49.6042 43.6249 49.4943 43.5549 49.3647 43.5045C49.2379 43.4513 49.1181 43.4094 49.0054 43.3786C48.8165 43.3282 48.6207 43.2652 48.4177 43.1896C48.2176 43.1112 48.0485 42.995 47.9104 42.8411C47.7723 42.6871 47.7033 42.4716 47.7033 42.1944C47.7033 41.9845 47.754 41.7857 47.8555 41.5982C47.9569 41.4078 48.1218 41.2538 48.3501 41.1363C48.5784 41.0187 48.8813 40.9599 49.259 40.9599C49.5352 40.9599 49.7593 40.9893 49.9312 41.0481C50.1059 41.1041 50.2567 41.1642 50.3835 41.2286L50.2905 41.9173C50.1693 41.8165 50.0284 41.7311 49.8678 41.6611C49.7071 41.5912 49.5098 41.5562 49.2759 41.5562C49.0392 41.5562 48.8461 41.601 48.6967 41.6905C48.5474 41.7773 48.4727 41.9173 48.4727 42.1104C48.4727 42.3036 48.5516 42.4408 48.7094 42.5219C48.8701 42.6031 49.1124 42.6927 49.4366 42.7907C49.538 42.8187 49.655 42.8593 49.7874 42.9125C49.9227 42.9657 50.0538 43.037 50.1806 43.1266C50.3074 43.2162 50.4117 43.3338 50.4934 43.4793C50.578 43.6221 50.6203 43.8013 50.6203 44.0168C50.6203 44.1988 50.5766 44.3849 50.4892 44.5753C50.4018 44.7629 50.244 44.921 50.0157 45.0498C49.7874 45.1786 49.4619 45.243 49.0392 45.243Z" fill="#F8F7FA"/>
<path d="M55.1663 45.243C54.6984 45.243 54.3053 45.1492 53.9868 44.9616C53.6711 44.7713 53.4316 44.5165 53.2681 44.1974C53.1075 43.8755 53.0272 43.5185 53.0272 43.1266C53.0272 42.7179 53.1047 42.3498 53.2597 42.0223C53.4175 41.6947 53.6585 41.4358 53.9826 41.2454C54.3067 41.0551 54.721 40.9599 55.2255 40.9599C55.4425 40.9599 55.6468 40.9823 55.8384 41.0271C56.0329 41.0691 56.2062 41.1279 56.3584 41.2034L56.2401 41.8669C56.0851 41.7941 55.9202 41.7367 55.7454 41.6947C55.5735 41.6527 55.3946 41.6317 55.2085 41.6317C54.752 41.6317 54.4039 41.7605 54.1644 42.0181C53.9248 42.2756 53.805 42.6339 53.805 43.093C53.805 43.5409 53.9192 43.9006 54.1474 44.1722C54.3757 44.4437 54.7238 44.5795 55.1916 44.5795C55.3833 44.5795 55.5665 44.5571 55.7412 44.5123C55.9188 44.4675 56.0879 44.4059 56.2485 44.3276L56.35 44.9322C56.2372 45.0106 56.0724 45.082 55.8554 45.1464C55.6383 45.2108 55.4087 45.243 55.1663 45.243Z" fill="#F8F7FA"/>
<path d="M58.8549 45.243C58.4209 45.243 58.0503 45.1478 57.7431 44.9574C57.4387 44.7643 57.2048 44.5067 57.0413 44.1848C56.8807 43.8601 56.8003 43.4989 56.8003 43.1014C56.8003 42.7039 56.8807 42.3442 57.0413 42.0223C57.2048 41.6975 57.4387 41.44 57.7431 41.2496C58.0503 41.0565 58.4209 40.9599 58.8549 40.9599C59.2861 40.9599 59.6553 41.0565 59.9625 41.2496C60.2697 41.44 60.5036 41.6975 60.6643 42.0223C60.8277 42.3442 60.9095 42.7039 60.9095 43.1014C60.9095 43.4989 60.8277 43.8601 60.6643 44.1848C60.5036 44.5067 60.2697 44.7643 59.9625 44.9574C59.6553 45.1478 59.2861 45.243 58.8549 45.243ZM58.8549 44.5711C59.2664 44.5711 59.582 44.4423 59.8019 44.1848C60.0217 43.9244 60.1316 43.5633 60.1316 43.1014C60.1316 42.6395 60.0217 42.2798 59.8019 42.0223C59.582 41.7619 59.2664 41.6317 58.8549 41.6317C58.4462 41.6317 58.1306 41.7619 57.9079 42.0223C57.6881 42.2798 57.5782 42.6395 57.5782 43.1014C57.5782 43.5633 57.6881 43.9244 57.9079 44.1848C58.1306 44.4423 58.4462 44.5711 58.8549 44.5711Z" fill="#F8F7FA"/>
<path d="M61.6941 45.159V41.0439H62.286L62.4382 41.8333L62.1507 41.6989C62.41 41.4218 62.6622 41.23 62.9074 41.1237C63.1526 41.0145 63.4105 40.9599 63.6811 40.9599C63.884 40.9599 64.0784 40.9935 64.2644 41.0607C64.4533 41.1251 64.6224 41.2398 64.7718 41.405C64.9239 41.5674 65.0451 41.7941 65.1353 42.0852L64.9239 41.9929C65.0479 41.6737 65.2382 41.4218 65.4947 41.237C65.7511 41.0523 66.0964 40.9599 66.5304 40.9599C66.877 40.9599 67.1687 41.0243 67.4055 41.153C67.6422 41.279 67.8198 41.4736 67.9381 41.7367C68.0593 41.9971 68.1199 42.3288 68.1199 42.7319V45.159H67.359V42.7403C67.359 42.354 67.2829 42.0726 67.1307 41.8963C66.9785 41.7199 66.7305 41.6317 66.3867 41.6317C66.1443 41.6317 65.9498 41.6695 65.8033 41.7451C65.6567 41.8179 65.5454 41.9131 65.4693 42.0307C65.396 42.1482 65.3467 42.2728 65.3213 42.4044C65.2988 42.5359 65.2875 42.6591 65.2875 42.7739V45.159H64.5266V42.8915C64.5266 42.5555 64.4857 42.2966 64.404 42.1146C64.3222 41.9327 64.2081 41.8067 64.0615 41.7367C63.915 41.6667 63.7459 41.6317 63.5542 41.6317C63.2752 41.6317 63.0258 41.6933 62.806 41.8165C62.5861 41.9369 62.4382 42.13 62.3621 42.396L62.4551 41.9845V45.159H61.6941Z" fill="#F8F7FA"/>
<path d="M71.0957 45.243C70.6081 45.243 70.1981 45.1436 69.8655 44.9448C69.5329 44.7461 69.2807 44.4829 69.1088 44.1554C68.9397 43.8251 68.8551 43.4625 68.8551 43.0678C68.8551 42.6843 68.934 42.333 69.0919 42.0139C69.2525 41.6947 69.4836 41.44 69.7852 41.2496C70.0895 41.0565 70.4559 40.9599 70.8843 40.9599C71.2281 40.9599 71.5339 41.0285 71.8017 41.1656C72.0722 41.3 72.2836 41.4974 72.4358 41.7577C72.5908 42.0153 72.6683 42.3288 72.6683 42.6983C72.6683 42.7571 72.6655 42.8215 72.6599 42.8915C72.657 42.9587 72.6486 43.0286 72.6345 43.1014H69.633C69.6696 43.4821 69.7612 43.7789 69.9078 43.9916C70.0543 44.2044 70.2389 44.3541 70.4616 44.4409C70.6842 44.5277 70.9266 44.5711 71.1887 44.5711C71.3803 44.5711 71.5804 44.5515 71.789 44.5123C71.9976 44.4731 72.1948 44.4115 72.3809 44.3276L72.4823 44.9238C72.3217 44.9938 72.1258 45.0652 71.8947 45.138C71.6636 45.208 71.3973 45.243 71.0957 45.243ZM69.7006 42.5807H71.882C71.882 42.3876 71.8454 42.2196 71.7721 42.0768C71.6988 41.9341 71.5875 41.8249 71.4381 41.7493C71.2887 41.6709 71.0985 41.6317 70.8674 41.6317C70.5292 41.6317 70.2685 41.7157 70.0853 41.8837C69.9049 42.0489 69.7767 42.2812 69.7006 42.5807Z" fill="#F8F7FA"/>
<path d="M76.7633 45.243C76.5012 45.243 76.2912 45.1954 76.1334 45.1002C75.9756 45.005 75.86 44.8832 75.7868 44.7349C75.7163 44.5837 75.6811 44.4255 75.6811 44.2604V41.6317H74.9709L75.0385 41.0439H75.6811V40.0277L76.442 39.9521V41.0439H77.5327V41.6317H76.442V43.7985C76.442 44.0616 76.4575 44.252 76.4885 44.3695C76.5195 44.4871 76.5956 44.5613 76.7168 44.5921C76.8408 44.6229 77.0395 44.6383 77.3129 44.6383H77.5073L77.4482 45.243H76.7633Z" fill="#F8F7FA"/>
<path d="M78.183 45.159V41.0439H78.8087L78.9017 41.7241C79.1131 41.4638 79.3146 41.272 79.5062 41.1488C79.7007 41.0229 79.9078 40.9599 80.1277 40.9599C80.1981 40.9599 80.263 40.9683 80.3221 40.9851L80.246 41.8165C80.2094 41.8081 80.1699 41.8025 80.1277 41.7997C80.0882 41.7941 80.0431 41.7913 79.9924 41.7913C79.7726 41.7913 79.5696 41.8403 79.3836 41.9383C79.2004 42.0335 79.0708 42.1384 78.9947 42.2532V45.159H78.183Z" fill="#F8F7FA"/>
<path d="M82.3463 45.243C82.0222 45.243 81.746 45.1786 81.5177 45.0498C81.2894 44.9182 81.1147 44.7195 80.9935 44.4535C80.8752 44.1876 80.816 43.8489 80.816 43.4373V41.0439H81.5769V43.2274C81.5769 43.6641 81.6516 43.9972 81.801 44.2268C81.9532 44.4563 82.1998 44.5711 82.5408 44.5711C82.7747 44.5711 82.9917 44.5151 83.1918 44.4031C83.3919 44.2912 83.53 44.112 83.6061 43.8657L83.4962 44.2772V41.0439H84.2571V45.159H83.5807L83.4286 44.3527L83.6315 44.4871C83.4934 44.7419 83.3243 44.9322 83.1242 45.0582C82.9269 45.1814 82.6676 45.243 82.3463 45.243Z" fill="#F8F7FA"/>
<path d="M87.2791 45.243C86.7915 45.243 86.3814 45.1436 86.0489 44.9448C85.7163 44.7461 85.4641 44.4829 85.2922 44.1554C85.1231 43.8251 85.0385 43.4625 85.0385 43.0678C85.0385 42.6843 85.1174 42.333 85.2752 42.0139C85.4359 41.6947 85.667 41.44 85.9686 41.2496C86.2729 41.0565 86.6393 40.9599 87.0677 40.9599C87.4115 40.9599 87.7173 41.0285 87.9851 41.1656C88.2556 41.3 88.467 41.4974 88.6192 41.7577C88.7742 42.0153 88.8517 42.3288 88.8517 42.6983C88.8517 42.7571 88.8489 42.8215 88.8433 42.8915C88.8404 42.9587 88.832 43.0286 88.8179 43.1014H85.8164C85.853 43.4821 85.9446 43.7789 86.0912 43.9916C86.2377 44.2044 86.4223 44.3541 86.645 44.4409C86.8676 44.5277 87.11 44.5711 87.3721 44.5711C87.5637 44.5711 87.7638 44.5515 87.9724 44.5123C88.181 44.4731 88.3782 44.4115 88.5642 44.3276L88.6657 44.9238C88.5051 44.9938 88.3092 45.0652 88.0781 45.138C87.847 45.208 87.5807 45.243 87.2791 45.243ZM85.884 42.5807H88.0654C88.0654 42.3876 88.0288 42.2196 87.9555 42.0768C87.8822 41.9341 87.7709 41.8249 87.6215 41.7493C87.4721 41.6709 87.2819 41.6317 87.0508 41.6317C86.7126 41.6317 86.4519 41.7157 86.2687 41.8837C86.0883 42.0489 85.9601 42.2812 85.884 42.5807Z" fill="#F8F7FA"/>
</svg>
