<svg width="40" height="40" viewBox="0 0 40 40" fill="none" xmlns="http://www.w3.org/2000/svg">
<g clip-path="url(#clip0_21_5295)">
<path opacity="0.2" d="M13.7501 25C18.2374 25 21.8751 21.3623 21.8751 16.875C21.8751 12.3877 18.2374 8.75 13.7501 8.75C9.26275 8.75 5.62506 12.3877 5.62506 16.875C5.62506 21.3623 9.26275 25 13.7501 25Z" fill="#BC2228"/>
<path d="M13.7501 25C18.2374 25 21.8751 21.3623 21.8751 16.875C21.8751 12.3877 18.2374 8.75 13.7501 8.75C9.26275 8.75 5.62506 12.3877 5.62506 16.875C5.62506 21.3623 9.26275 25 13.7501 25Z" stroke="#BC2228" stroke-width="2" stroke-miterlimit="10"/>
<path d="M24.2833 9.05256C25.4009 8.7377 26.5729 8.66597 27.7205 8.84221C28.8681 9.01845 29.9646 9.43856 30.9361 10.0743C31.9077 10.7099 32.7317 11.5465 33.3528 12.5274C33.9738 13.5084 34.3774 14.6111 34.5364 15.7612C34.6954 16.9113 34.6061 18.0821 34.2745 19.1948C33.9429 20.3075 33.3767 21.3362 32.614 22.2116C31.8514 23.0871 30.91 23.7889 29.8533 24.2699C28.7965 24.7508 27.649 24.9998 26.488 24.9999" stroke="#BC2228" stroke-width="2" stroke-linecap="round" stroke-linejoin="round"/>
<path d="M2.49933 30.8432C3.76829 29.0382 5.45291 27.565 7.41097 26.548C9.36903 25.531 11.543 25.0001 13.7495 25C15.9559 24.9999 18.1299 25.5307 20.0881 26.5476C22.0462 27.5644 23.7309 29.0375 25 30.8424" stroke="#BC2228" stroke-width="2" stroke-linecap="round" stroke-linejoin="round"/>
<path d="M26.4879 25C28.6945 24.9984 30.8691 25.5285 32.8273 26.5455C34.7856 27.5625 36.4701 29.0364 37.738 30.8424" stroke="#BC2228" stroke-width="2" stroke-linecap="round" stroke-linejoin="round"/>
</g>
<defs>
<clipPath id="clip0_21_5295">
<rect width="40" height="40" fill="white"/>
</clipPath>
</defs>
</svg>
