<svg width="147" height="40" viewBox="0 0 147 40" fill="none" xmlns="http://www.w3.org/2000/svg">
<rect width="147" height="40" rx="4" fill="#BC2228" fill-opacity="0.2"/>
<path d="M24.8174 23.1813L31.1813 16.8174" stroke="#BC2228" stroke-width="2" stroke-linecap="round" stroke-linejoin="round"/>
<path d="M29.5909 24.7726L26.9392 27.4243C26.0953 28.268 24.9508 28.7419 23.7574 28.7418C22.5641 28.7417 21.4197 28.2676 20.5758 27.4238C19.732 26.5799 19.2579 25.4355 19.2578 24.2422C19.2577 23.0488 19.7316 21.9043 20.5753 21.0603L23.2269 18.4087" stroke="#BC2228" stroke-width="2" stroke-linecap="round" stroke-linejoin="round"/>
<path d="M32.7731 21.5904L35.4248 18.9388C36.2685 18.0948 36.7424 16.9503 36.7423 15.7569C36.7422 14.5636 36.2681 13.4192 35.4243 12.5753C34.5804 11.7315 33.436 11.2574 32.2427 11.2573C31.0493 11.2572 29.9048 11.7311 29.0608 12.5748L26.4092 15.2264" stroke="#BC2228" stroke-width="2" stroke-linecap="round" stroke-linejoin="round"/>
<path d="M56.9432 18.1477H55.1705C55.1023 17.7689 54.9754 17.4356 54.7898 17.1477C54.6042 16.8598 54.3769 16.6155 54.108 16.4148C53.839 16.214 53.5379 16.0625 53.2045 15.9602C52.875 15.858 52.5246 15.8068 52.1534 15.8068C51.483 15.8068 50.8826 15.9754 50.3523 16.3125C49.8258 16.6496 49.4091 17.1439 49.1023 17.7955C48.7992 18.447 48.6477 19.2424 48.6477 20.1818C48.6477 21.1288 48.7992 21.928 49.1023 22.5795C49.4091 23.2311 49.8277 23.7235 50.358 24.0568C50.8883 24.3902 51.4848 24.5568 52.1477 24.5568C52.5152 24.5568 52.8636 24.5076 53.1932 24.4091C53.5265 24.3068 53.8277 24.1572 54.0966 23.9602C54.3655 23.7633 54.5928 23.5227 54.7784 23.2386C54.9678 22.9508 55.0985 22.6212 55.1705 22.25L56.9432 22.2557C56.8485 22.8277 56.6648 23.3542 56.392 23.8352C56.1231 24.3125 55.7765 24.7254 55.3523 25.0739C54.9318 25.4186 54.4508 25.6856 53.9091 25.875C53.3674 26.0644 52.7765 26.1591 52.1364 26.1591C51.1288 26.1591 50.2311 25.9205 49.4432 25.4432C48.6553 24.9621 48.0341 24.2746 47.5795 23.3807C47.1288 22.4867 46.9034 21.4205 46.9034 20.1818C46.9034 18.9394 47.1307 17.8731 47.5852 16.983C48.0398 16.089 48.661 15.4034 49.4489 14.9261C50.2367 14.4451 51.1326 14.2045 52.1364 14.2045C52.7538 14.2045 53.3295 14.2936 53.8636 14.4716C54.4015 14.6458 54.8845 14.9034 55.3125 15.2443C55.7405 15.5814 56.0947 15.9943 56.375 16.483C56.6553 16.9678 56.8447 17.5227 56.9432 18.1477ZM62.5838 26.1761C61.7656 26.1761 61.0516 25.9886 60.4418 25.6136C59.8319 25.2386 59.3584 24.714 59.0213 24.0398C58.6842 23.3655 58.5156 22.5777 58.5156 21.6761C58.5156 20.7708 58.6842 19.9792 59.0213 19.3011C59.3584 18.6231 59.8319 18.0966 60.4418 17.7216C61.0516 17.3466 61.7656 17.1591 62.5838 17.1591C63.402 17.1591 64.116 17.3466 64.7259 17.7216C65.3357 18.0966 65.8092 18.6231 66.1463 19.3011C66.4834 19.9792 66.652 20.7708 66.652 21.6761C66.652 22.5777 66.4834 23.3655 66.1463 24.0398C65.8092 24.714 65.3357 25.2386 64.7259 25.6136C64.116 25.9886 63.402 26.1761 62.5838 26.1761ZM62.5895 24.75C63.1198 24.75 63.5592 24.6098 63.9077 24.3295C64.2562 24.0492 64.5137 23.6761 64.6804 23.2102C64.8509 22.7443 64.9361 22.2311 64.9361 21.6705C64.9361 21.1136 64.8509 20.6023 64.6804 20.1364C64.5137 19.6667 64.2562 19.2898 63.9077 19.0057C63.5592 18.7216 63.1198 18.5795 62.5895 18.5795C62.0554 18.5795 61.6122 18.7216 61.2599 19.0057C60.9115 19.2898 60.652 19.6667 60.4815 20.1364C60.3149 20.6023 60.2315 21.1136 60.2315 21.6705C60.2315 22.2311 60.3149 22.7443 60.4815 23.2102C60.652 23.6761 60.9115 24.0492 61.2599 24.3295C61.6122 24.6098 62.0554 24.75 62.5895 24.75ZM68.5483 29.2727V17.2727H70.2074V18.6875H70.3494C70.4479 18.5057 70.59 18.2955 70.7756 18.0568C70.9612 17.8182 71.2188 17.6098 71.5483 17.4318C71.8778 17.25 72.3134 17.1591 72.8551 17.1591C73.5597 17.1591 74.1884 17.3371 74.7415 17.6932C75.2945 18.0492 75.7282 18.5625 76.0426 19.233C76.3608 19.9034 76.5199 20.7102 76.5199 21.6534C76.5199 22.5966 76.3627 23.4053 76.0483 24.0795C75.7339 24.75 75.3021 25.267 74.7528 25.6307C74.2036 25.9905 73.5767 26.1705 72.8722 26.1705C72.3419 26.1705 71.9081 26.0814 71.571 25.9034C71.2377 25.7254 70.9763 25.517 70.7869 25.2784C70.5975 25.0398 70.4517 24.8277 70.3494 24.642H70.2472V29.2727H68.5483ZM70.2131 21.6364C70.2131 22.25 70.3021 22.7879 70.4801 23.25C70.6581 23.7121 70.9157 24.0739 71.2528 24.3352C71.59 24.5928 72.0028 24.7216 72.4915 24.7216C72.9991 24.7216 73.4233 24.5871 73.7642 24.3182C74.1051 24.0455 74.3627 23.6761 74.5369 23.2102C74.715 22.7443 74.804 22.2197 74.804 21.6364C74.804 21.0606 74.7169 20.5436 74.5426 20.0852C74.3722 19.6269 74.1146 19.2652 73.7699 19C73.429 18.7348 73.0028 18.6023 72.4915 18.6023C71.9991 18.6023 71.5824 18.7292 71.2415 18.983C70.9044 19.2367 70.6487 19.5909 70.4744 20.0455C70.3002 20.5 70.2131 21.0303 70.2131 21.6364ZM79.2003 29.2727C78.9465 29.2727 78.7154 29.2519 78.5071 29.2102C78.2988 29.1723 78.1435 29.1307 78.0412 29.0852L78.4503 27.6932C78.7609 27.7765 79.0374 27.8125 79.2798 27.8011C79.5223 27.7898 79.7363 27.6989 79.9219 27.5284C80.1113 27.358 80.2779 27.0795 80.4219 26.6932L80.6321 26.1136L77.4389 17.2727H79.2571L81.4673 24.0455H81.5582L83.7685 17.2727H85.5923L81.9957 27.1648C81.8291 27.6193 81.617 28.0038 81.3594 28.3182C81.1018 28.6364 80.795 28.875 80.4389 29.0341C80.0829 29.1932 79.67 29.2727 79.2003 29.2727ZM91.5597 26V14.3636H93.3153V24.4886H98.5881V26H91.5597ZM100.455 26V17.2727H102.153V26H100.455ZM101.312 15.9261C101.017 15.9261 100.763 15.8277 100.551 15.6307C100.343 15.4299 100.239 15.1913 100.239 14.9148C100.239 14.6345 100.343 14.3958 100.551 14.1989C100.763 13.9981 101.017 13.8977 101.312 13.8977C101.608 13.8977 101.86 13.9981 102.068 14.1989C102.28 14.3958 102.386 14.6345 102.386 14.9148C102.386 15.1913 102.28 15.4299 102.068 15.6307C101.86 15.8277 101.608 15.9261 101.312 15.9261ZM106.138 20.8182V26H104.439V17.2727H106.07V18.6932H106.178C106.378 18.2311 106.693 17.8598 107.121 17.5795C107.553 17.2992 108.096 17.1591 108.751 17.1591C109.346 17.1591 109.867 17.2841 110.314 17.5341C110.761 17.7803 111.107 18.1477 111.354 18.6364C111.6 19.125 111.723 19.7292 111.723 20.4489V26H110.024V20.6534C110.024 20.0208 109.859 19.5265 109.53 19.1705C109.2 18.8106 108.748 18.6307 108.172 18.6307C107.778 18.6307 107.428 18.7159 107.121 18.8864C106.818 19.0568 106.577 19.3068 106.399 19.6364C106.225 19.9621 106.138 20.3561 106.138 20.8182ZM115.564 23.0398L115.553 20.9659H115.848L119.325 17.2727H121.359L117.393 21.4773H117.126L115.564 23.0398ZM114.001 26V14.3636H115.7V26H114.001ZM119.513 26L116.388 21.8523L117.558 20.6648L121.598 26H119.513ZM129.447 19.4034L127.908 19.6761C127.843 19.4792 127.741 19.2917 127.601 19.1136C127.464 18.9356 127.279 18.7898 127.044 18.6761C126.809 18.5625 126.516 18.5057 126.163 18.5057C125.682 18.5057 125.281 18.6136 124.959 18.8295C124.637 19.0417 124.476 19.3163 124.476 19.6534C124.476 19.9451 124.584 20.1799 124.8 20.358C125.016 20.536 125.364 20.6818 125.845 20.7955L127.232 21.1136C128.035 21.2992 128.633 21.5852 129.027 21.9716C129.421 22.358 129.618 22.8598 129.618 23.4773C129.618 24 129.466 24.4659 129.163 24.875C128.864 25.2803 128.446 25.5985 127.908 25.8295C127.374 26.0606 126.754 26.1761 126.05 26.1761C125.072 26.1761 124.275 25.9678 123.658 25.5511C123.04 25.1307 122.661 24.5341 122.521 23.7614L124.163 23.5114C124.266 23.9394 124.476 24.2633 124.794 24.483C125.112 24.6989 125.527 24.8068 126.038 24.8068C126.595 24.8068 127.04 24.6913 127.374 24.4602C127.707 24.2254 127.874 23.9394 127.874 23.6023C127.874 23.3295 127.771 23.1004 127.567 22.9148C127.366 22.7292 127.057 22.589 126.641 22.4943L125.163 22.1705C124.349 21.9848 123.747 21.6894 123.357 21.2841C122.97 20.8788 122.777 20.3655 122.777 19.7443C122.777 19.2292 122.921 18.7784 123.209 18.392C123.497 18.0057 123.894 17.7045 124.402 17.4886C124.91 17.2689 125.491 17.1591 126.146 17.1591C127.089 17.1591 127.832 17.3636 128.374 17.7727C128.915 18.178 129.273 18.7216 129.447 19.4034Z" fill="#BC2228"/>
</svg>
